<svg xmlns="http://www.w3.org/2000/svg" width="109.693" height="101.693" viewBox="0 0 109.693 101.693">
  <g id="그룹_1" data-name="그룹 1" transform="translate(-1908.465 728.702)">
    <g id="_37888" data-name="37888" transform="translate(1952.439 551.298)">
      <path id="패스_1" data-name="패스 1" d="M5.4-1271.138,0-1262.279v.251l5.4,8.862,5.4,8.859h.153l5.4-8.862,5.4-8.859v-.251l-5.4-8.862-5.4-8.859H10.8Z" transform="translate(0 0)" fill="#90bd6a"/>
    </g>
    <g id="_37888-2" data-name="37888" transform="translate(1952.439 -662.702)">
      <path id="패스_1-2" data-name="패스 1" d="M5.4-1253.169,0-1262.028v-.251l5.4-8.862L10.8-1280h.153l5.4,8.862,5.4,8.859v.251l-5.4,8.862-5.4,8.859H10.8Z" transform="translate(0 1280)" fill="#c0d2aa"/>
    </g>
    <g id="_37888-3" data-name="37888" transform="translate(738.158 -687.728) rotate(90)">
      <path id="패스_1-3" data-name="패스 1" d="M5.4-1271.138,0-1262.279v.251l5.4,8.862,5.4,8.859h.153l5.4-8.862,5.4-8.859v-.251l-5.4-8.862-5.4-8.859H10.8Z" transform="translate(0 0)" fill="#91bd6e"/>
    </g>
    <g id="_37888-4" data-name="37888" transform="translate(1944.158 -687.728) rotate(90)">
      <path id="패스_1-4" data-name="패스 1" d="M5.4,26.831,0,17.972v-.251L5.4,8.859,10.8,0h.153l5.4,8.862,5.4,8.859v.251l-5.4,8.862-5.4,8.859H10.8Z" fill="#e1eae5"/>
    </g>
    <g id="_37888-5" data-name="37888" transform="translate(1956.619 -697.924) rotate(135)">
      <path id="패스_1-5" data-name="패스 1" d="M5.4,26.831,0,17.972v-.251L5.4,8.859,10.8,0h.153l5.4,8.862,5.4,8.859v.251l-5.4,8.862-5.4,8.859H10.8Z" fill="#e6e5e3"/>
    </g>
    <g id="_37888-6" data-name="37888" transform="translate(1995.243 -723.163) rotate(45)">
      <path id="패스_1-6" data-name="패스 1" d="M5.4,8.862,0,17.721v.251l5.4,8.862,5.4,8.859h.153l5.4-8.862,5.4-8.859v-.251l-5.4-8.862L10.949,0H10.8Z" transform="translate(0 0)" fill="#91bd70"/>
    </g>
    <g id="_37888-7" data-name="37888" transform="translate(1970.004 -656.786) rotate(-45)">
      <path id="패스_1-7" data-name="패스 1" d="M5.4,26.831,0,17.972v-.251L5.4,8.859,10.8,0h.153l5.4,8.862,5.4,8.859v.251l-5.4,8.862-5.4,8.859H10.8Z" transform="translate(0 0)" fill="#a4cb7a"/>
    </g>
    <g id="_37888-8" data-name="37888" transform="translate(1931.38 -631.548) rotate(-135)">
      <path id="패스_1-8" data-name="패스 1" d="M5.4,8.862,0,17.721v.251l5.4,8.862,5.4,8.859h.153l5.4-8.862,5.4-8.859v-.251l-5.4-8.862L10.949,0H10.8Z" transform="translate(0 0)" fill="#d6d9ce"/>
    </g>
  </g>
</svg>
